<svg width="255px" height="45px" viewBox="0 0 255 45" version="1.1" xmlns="http://www.w3.org/2000/svg" xmlns:xlink="http://www.w3.org/1999/xlink">
    <g id="Page-1" stroke="none" stroke-width="1" fill="none" fill-rule="evenodd">
        <g id="Desktop-HD" transform="translate(-426.000000, -1095.000000)" fill="#FFFFFF">
            <g id="Group-3" transform="translate(426.000000, 1095.000000)">
                <rect id="Rectangle-5" x="0" y="40" width="255" height="5"></rect>
                <g id="Group-2" transform="translate(226.000000, 2.000000)">
                    <path d="M13,26 C5.82029825,26 0,20.1797017 0,13 C0,5.82029825 5.82029825,0 13,0 C20.1797017,0 26,5.82029825 26,13 C26,20.1797017 20.1797017,26 13,26 Z M12.4745263,14.1002105 L13.8538947,14.1002105 L14.1494737,10.6764211 L14.2233684,8.85368421 L12.1050526,8.85368421 L12.1789474,10.6764211 L12.4745263,14.1002105 Z M13.1642105,17.2530526 C13.5254755,17.2530526 13.8210515,17.129896 14.0509474,16.8835789 C14.2808433,16.6372619 14.3957895,16.3334755 14.3957895,15.9722105 C14.3957895,15.6109456 14.2808433,15.3071591 14.0509474,15.0608421 C13.8210515,14.8145251 13.5254755,14.6913684 13.1642105,14.6913684 C12.8029456,14.6913684 12.5073696,14.8145251 12.2774737,15.0608421 C12.0475778,15.3071591 11.9326316,15.6109456 11.9326316,15.9722105 C11.9326316,16.3334755 12.0475778,16.6372619 12.2774737,16.8835789 C12.5073696,17.129896 12.8029456,17.2530526 13.1642105,17.2530526 Z" id="Combined-Shape"></path>
                </g>
                <path d="M2.62,22 L2.62,10.192 L9.424,10.192 L9.424,11.452 L4.114,11.452 L4.114,15.16 L8.596,15.16 L8.596,16.438 L4.114,16.438 L4.114,20.722 L9.604,20.722 L9.604,22 L2.62,22 Z M11.962,22 L11.962,13.252 L13.186,13.252 L13.312,14.512 L13.366,14.512 C13.7500019,14.0919979 14.1669978,13.7410014 14.617,13.459 C15.0670023,13.1769986 15.5559974,13.036 16.084,13.036 C16.7560034,13.036 17.2809981,13.1829985 17.659,13.477 C18.0370019,13.7710015 18.3159991,14.1819974 18.496,14.71 C18.9520023,14.2059975 19.4109977,13.8010015 19.873,13.495 C20.3350023,13.1889985 20.8359973,13.036 21.376,13.036 C22.2760045,13.036 22.9449978,13.3239971 23.383,13.9 C23.8210022,14.4760029 24.04,15.3279944 24.04,16.456 L24.04,22 L22.564,22 L22.564,16.654 C22.564,15.8259959 22.4320013,15.2290018 22.168,14.863 C21.9039987,14.4969982 21.4960028,14.314 20.944,14.314 C20.2839967,14.314 19.552004,14.7639955 18.748,15.664 L18.748,22 L17.272,22 L17.272,16.654 C17.272,15.8259959 17.1400013,15.2290018 16.876,14.863 C16.6119987,14.4969982 16.1980028,14.314 15.634,14.314 C14.9739967,14.314 14.242004,14.7639955 13.438,15.664 L13.438,22 L11.962,22 Z M30.754,22.216 C30.345998,22.216 29.9230022,22.117001 29.485,21.919 C29.0469978,21.720999 28.6360019,21.4480017 28.252,21.1 L28.198,21.1 L28.072,22 L26.884,22 L26.884,9.184 L28.36,9.184 L28.36,12.676 L28.324,14.26 C28.720002,13.9119983 29.1519977,13.6210012 29.62,13.387 C30.0880023,13.1529988 30.5679975,13.036 31.06,13.036 C31.6240028,13.036 32.1219978,13.140999 32.554,13.351 C32.9860022,13.561001 33.3489985,13.860998 33.643,14.251 C33.9370015,14.6410019 34.1589993,15.1089973 34.309,15.655 C34.4590008,16.2010027 34.534,16.8099966 34.534,17.482 C34.534,18.2260037 34.432001,18.8919971 34.228,19.48 C34.023999,20.0680029 33.7480017,20.565998 33.4,20.974 C33.0519983,21.382002 32.6500023,21.690999 32.194,21.901 C31.7379977,22.111001 31.2580025,22.216 30.754,22.216 Z M30.502,20.974 C30.8620018,20.974 31.1949985,20.8930008 31.501,20.731 C31.8070015,20.5689992 32.0709989,20.3410015 32.293,20.047 C32.5150011,19.7529985 32.6889994,19.3900022 32.815,18.958 C32.9410006,18.5259978 33.004,18.0400027 33.004,17.5 C33.004,17.0199976 32.9620004,16.582002 32.878,16.186 C32.7939996,15.789998 32.6590009,15.4510014 32.473,15.169 C32.2869991,14.8869986 32.0470015,14.6680008 31.753,14.512 C31.4589985,14.3559992 31.108002,14.278 30.7,14.278 C29.9919965,14.278 29.2120043,14.673996 28.36,15.466 L28.36,20.056 C28.7440019,20.3920017 29.1249981,20.6289993 29.503,20.767 C29.8810019,20.9050007 30.2139986,20.974 30.502,20.974 Z M40.384,22.216 C39.7959971,22.216 39.2470026,22.111001 38.737,21.901 C38.2269974,21.690999 37.7830019,21.3910019 37.405,21.001 C37.0269981,20.610998 36.7300011,20.1340028 36.514,19.57 C36.2979989,19.0059972 36.19,18.3640036 36.19,17.644 C36.19,16.9239964 36.3009989,16.2790028 36.523,15.709 C36.7450011,15.1389972 37.0389982,14.656002 37.405,14.26 C37.7710018,13.863998 38.1879977,13.561001 38.656,13.351 C39.1240023,13.140999 39.6099975,13.036 40.114,13.036 C40.6660028,13.036 41.1609978,13.131999 41.599,13.324 C42.0370022,13.516001 42.4029985,13.7919982 42.697,14.152 C42.9910015,14.5120018 43.2159992,14.9439975 43.372,15.448 C43.5280008,15.9520025 43.606,16.5159969 43.606,17.14 C43.606,17.2960008 43.603,17.4489992 43.597,17.599 C43.591,17.7490008 43.5760001,17.8779995 43.552,17.986 L37.648,17.986 C37.7080003,18.9220047 37.9989974,19.6629973 38.521,20.209 C39.0430026,20.7550027 39.7239958,21.028 40.564,21.028 C40.9840021,21.028 41.3709982,20.9650006 41.725,20.839 C42.0790018,20.7129994 42.4179984,20.548001 42.742,20.344 L43.264,21.316 C42.8799981,21.5560012 42.4540023,21.7659991 41.986,21.946 C41.5179977,22.1260009 40.984003,22.216 40.384,22.216 Z M37.63,16.924 L42.31,16.924 C42.31,16.0359956 42.1210019,15.3610023 41.743,14.899 C41.3649981,14.4369977 40.8340034,14.206 40.15,14.206 C39.8379984,14.206 39.5410014,14.2659994 39.259,14.386 C38.9769986,14.5060006 38.7220011,14.6829988 38.494,14.917 C38.2659989,15.1510012 38.0770008,15.4359983 37.927,15.772 C37.7769993,16.1080017 37.6780002,16.4919978 37.63,16.924 Z M45.766,22 L45.766,13.252 L46.99,13.252 L47.116,14.836 L47.17,14.836 C47.4700015,14.2839972 47.8329979,13.8460016 48.259,13.522 C48.6850021,13.1979984 49.1499975,13.036 49.654,13.036 C50.0020017,13.036 50.3139986,13.0959994 50.59,13.216 L50.302,14.512 C50.1579993,14.4639998 50.0260006,14.4280001 49.906,14.404 C49.7859994,14.3799999 49.6360009,14.368 49.456,14.368 C49.0839981,14.368 48.697002,14.5179985 48.295,14.818 C47.892998,15.1180015 47.5420015,15.6399963 47.242,16.384 L47.242,22 L45.766,22 Z M57.916,22 L54.136,10.192 L55.738,10.192 L57.628,16.564 C57.8440011,17.2720035 58.0329992,17.925997 58.195,18.526 C58.3570008,19.126003 58.5519989,19.7739965 58.78,20.47 L58.852,20.47 C59.0680011,19.7739965 59.2599992,19.126003 59.428,18.526 C59.5960008,17.925997 59.781999,17.2720035 59.986,16.564 L61.876,10.192 L63.406,10.192 L59.662,22 L57.916,22 Z M66.502,22.216 C65.7699963,22.216 65.1610024,22.0000022 64.675,21.568 C64.1889976,21.1359978 63.946,20.524004 63.946,19.732 C63.946,18.7719952 64.3719957,18.0370026 65.224,17.527 C66.0760043,17.0169974 67.4379906,16.660001 69.31,16.456 C69.31,16.1799986 69.2830003,15.9100013 69.229,15.646 C69.1749997,15.3819987 69.0820007,15.148001 68.95,14.944 C68.8179993,14.739999 68.6350012,14.5750006 68.401,14.449 C68.1669988,14.3229994 67.8700018,14.26 67.51,14.26 C67.0059975,14.26 66.5320022,14.355999 66.088,14.548 C65.6439978,14.740001 65.2480017,14.9559988 64.9,15.196 L64.324,14.17 C64.732002,13.9059987 65.2299971,13.6510012 65.818,13.405 C66.4060029,13.1589988 67.0539965,13.036 67.762,13.036 C68.8300053,13.036 69.6039976,13.3629967 70.084,14.017 C70.5640024,14.6710033 70.804,15.5439945 70.804,16.636 L70.804,22 L69.58,22 L69.454,20.956 L69.4,20.956 C68.9799979,21.3040017 68.5300024,21.6009988 68.05,21.847 C67.5699976,22.0930012 67.0540028,22.216 66.502,22.216 Z M66.934,21.028 C67.3540021,21.028 67.7499981,20.929001 68.122,20.731 C68.4940019,20.532999 68.8899979,20.2420019 69.31,19.858 L69.31,17.428 C68.5779963,17.5240005 67.9630025,17.6379993 67.465,17.77 C66.9669975,17.9020007 66.5650015,18.0579991 66.259,18.238 C65.9529985,18.4180009 65.7310007,18.6249988 65.593,18.859 C65.4549993,19.0930012 65.386,19.3479986 65.386,19.624 C65.386,20.1280025 65.5359985,20.4879989 65.836,20.704 C66.1360015,20.9200011 66.5019978,21.028 66.934,21.028 Z M75.124,22.216 C74.5599972,22.216 74.1580012,22.0480017 73.918,21.712 C73.6779988,21.3759983 73.558,20.8840032 73.558,20.236 L73.558,9.184 L75.034,9.184 L75.034,20.344 C75.034,20.5840012 75.0759996,20.7519995 75.16,20.848 C75.2440004,20.9440005 75.3399995,20.992 75.448,20.992 L75.583,20.992 C75.6250002,20.992 75.6879996,20.9800001 75.772,20.956 L75.97,22.072 C75.8739995,22.1200002 75.7600007,22.1559999 75.628,22.18 C75.4959993,22.2040001 75.328001,22.216 75.124,22.216 Z" id="Ember-Val"></path>
                <rect id="Rectangle-6" x="80" y="0" width="1" height="28"></rect>
            </g>
        </g>
    </g>
</svg>
