<svg width="255.42" height="194.27" xmlns="http://www.w3.org/2000/svg" xmlns:svg="http://www.w3.org/2000/svg">
 <defs>
  <clipPath clipPathUnits="userSpaceOnUse" id="al">
   <path id="svg_2" fill="#a40000" d="m134.78,65.531c-12.46,-0.04552 -23.541,3.5163 -33.219,9.5938c-0.007,0.0047 -0.0238,-0.0047 -0.0312,0c-13.698,4.6271 -23.483,12.212 -30.812,22.531c-12.984,18.279 -23.557,60.034 -22.406,85.188c28.303,44.558 163.82,43.746 187.88,3.125c-10.473,-36.776 -7.134,-67.941 -23.781,-89.219c-8.9002,-11.376 -21.771,-18.932 -35.812,-23.094c-0.0724,-0.02147 -0.14625,-0.04121 -0.21875,-0.0625c-6.4796,-2.4708 -22.688,-8 -39.188,-8c-0.80529,-0.03223 -1.6121,-0.0596 -2.4062,-0.0625l-0.00585,0.0002zm29.312,5.3438c0.44849,0.06863 0.89602,0.14379 1.3438,0.21875c-0.44964,-0.07493 -0.89333,-0.15022 -1.3438,-0.21875zm-45.406,0.3125c-0.96659,0.13612 -1.9064,0.28145 -2.8438,0.4375c0.93942,-0.15672 1.8749,-0.30082 2.8438,-0.4375z"/>
  </clipPath>
 </defs>
 <g>
  <title>Layer 1</title>
  <g id="svg_3">
   <path id="svg_5" fill="#ffffff" d="m28.67425,126.511875c-24.662,7.3484 30.107,42.063 53.215,48.765c47.108,13.663 77.728,17.467 144.85,-25.938c27.101,-23.941 -19.54,-25.35 -81.132,-21.376c-104.14,-5.57 -111.78,-21.09 -116.93,-1.45l-0.003,-0.001z"/>
   <path id="svg_8" fill="#ffffff" d="m126.03625,11.449469c-39.07,-0.842 -60.711,8.882 -74.155,27.809c-12.984,18.277 -23.558,60.047 -22.407,85.207c28.304,44.55 163.81,43.74 187.87,3.12c-10.47,-36.78 -7.13,-67.95 -23.78,-89.225c-15.43,-19.73 -42.81,-28.031 -67.53,-26.911l0.002,0z"/>
  </g>
 </g>
</svg>
