<?xml version="1.0" encoding="UTF-8"?>
<svg width="570" height="140" xmlns="http://www.w3.org/2000/svg">
 <g fill="white" id="logo">
  <title>Freedomvote Logo</title>
  <text id="text-freedom" font-size="80" font-family="Sans" y="110">Freedom</text>
  <text id="text-vote" font-size="80" font-family="Sans" y="110" x="433">ote</text>
  <g id="rectangle-checkmark">
   <path d="m365.851,47.6191c-8.1013,0 -14.851,7.0919 -14.851,16.072l0,45.727c0,8.9802 6.7494,16.096 14.851,16.096l47.497,0c8.1013,0 14.872,-7.1161 14.872,-16.096l-4.9222,0c0,5.7257 -4.3036,12.441 -9.9496,12.441l-47.497,0c-5.6459,0 -9.9496,-6.7152 -9.9496,-12.441l0,-45.727c0,-5.7257 4.31297,-12.7662 9.9496,-12.441l34.666,0l0,-3.6313l-34.666,0l-0.0002,0.0003z" id="rectangle"/>
   <path d="m463.69025,13c-25.83,16.182 -48.3534,34.947 -69.5475,83.052l-19.3896,-35.154l-11.2014,7.29c9.2988,15.3423 20.6235,35.4636 24.6951,42.9282l12.5118,0c12.0411,-49.527 40.5666,-84.528 66.6666,-97.974l-3.73374,-0.1393l-0.00126,-0.0029z" id="checkmark"/>
  </g>
 </g>
</svg>
