<svg width="211px" height="73px" viewBox="0 0 211 73" version="1.1" xmlns="http://www.w3.org/2000/svg" xmlns:xlink="http://www.w3.org/1999/xlink">
    <g id="Page-1" stroke="none" stroke-width="1" fill="none" fill-rule="evenodd">
        <g id="Desktop-HD" transform="translate(-455.000000, -613.000000)" fill-rule="nonzero" fill="#FFFFFF">
            <g id="logo" transform="translate(455.000000, 613.000000)">
                <g id="Logo">
                    <g id="Ebene_2" transform="translate(3.398459, 0.000000)">
                        <g id="Group">
                            <path d="M10.2762763,58.5499681 C10.1724755,58.5499681 10.1724755,58.5499681 10.2762763,58.5499681 C5.29383929,59.2740843 1.0380077,57.1017357 0.519003852,52.7570384 C-0.207601541,46.550328 2.17981618,35.6885848 6.6432493,29.5853196 C8.09646008,27.5164161 10.1724755,25.8612933 13.0788971,25.4475127 C16.4005217,25.033732 20.1373494,26.0681837 20.5525525,30.6197713 C20.9677556,35.79203 15.6739163,49.1364574 7.99265931,50.2743543 C7.47365546,50.3777994 6.85085084,50.3777994 6.22804622,50.2743543 C6.22804622,50.9984705 6.22804622,51.6191415 6.33184699,52.1363674 C6.53944853,54.1018257 7.47365546,55.3431678 9.23826856,55.6535033 C16.9195256,53.4811546 23.043771,40.0332821 26.2615949,30.1025455 C26.676798,29.9991003 26.7805987,30.1025455 26.7805987,30.412881 C26.9882003,33.5162362 18.6841387,57.3086261 10.2762763,58.5499681 Z M6.43564776,48.5157863 C12.0408894,46.7572184 16.4005217,33.412791 15.9853186,28.8612034 C15.8815179,28.1370872 15.7777171,27.7233065 15.362514,27.5164161 C12.3522917,28.1370872 7.36985469,40.6539531 6.43564776,48.5157863 Z" id="Shape"></path>
                            <path d="M31.7630357,50.688135 C31.5554342,48.5157863 33.2162465,43.1366373 35.6036642,37.5505979 C37.9910819,31.8611134 40.689902,26.5854096 40.3784996,24.8268416 C37.7834804,24.6199513 27.8186064,42.8263018 24.0817787,55.7569485 C23.5627749,55.9638388 23.043771,56.1707291 22.4209664,56.1707291 C20.8639548,56.3776195 19.3069433,55.9638388 19.2031425,54.7224967 C18.995541,52.6535933 20.2411502,47.5847798 22.0057633,41.5849597 C23.6665756,35.9989203 25.742591,30.3094358 26.676798,26.4819644 C25.4311887,26.8957451 24.6007826,26.9991903 23.8741772,27.1026354 C22.6285679,27.2060806 22.2133648,26.7922999 22.1095641,26.1716289 C22.1095641,25.7578482 22.1095641,25.4475127 22.2133648,25.033732 C24.1855795,24.8268416 26.0539933,24.3096157 27.7148057,24.1027254 C29.8946218,23.8958351 31.4516334,24.7233964 31.6592349,26.8957451 C31.7630357,28.654313 29.9984226,34.2403524 28.3376103,39.9298369 C32.4896411,31.033552 36.4340704,22.7579381 40.5861012,22.4476026 C42.8697181,22.2407123 46.087542,22.9648285 46.2951436,25.8612933 C46.3989443,27.9301968 44.5305305,32.8955651 41.9355112,38.8953852 C39.4442927,44.6883149 36.7454727,50.5846898 37.7834804,52.4467029 C42.7659174,49.1364574 48.4749597,37.1368172 52.0041859,27.6198613 C52.419389,27.5164161 52.5231898,27.6198613 52.5231898,27.9301968 C52.6269905,31.033552 44.0115266,54.4121612 36.5378711,55.2397226 C34.358055,55.4466129 31.9706373,53.4811546 31.7630357,50.688135 Z" id="Shape"></path>
                            <path d="M50.9661782,54.1018257 C48.8901628,54.308716 46.087542,52.2398126 45.8799405,49.3433477 C45.6723389,45.8262118 46.7103466,40.550508 48.371159,35.6885848 C50.8623775,28.1370872 54.1840021,21.2062605 58.6474352,20.895925 C60.9310522,20.7924799 63.8374737,22.5510478 64.2526768,26.0681837 C67.4705007,17.3787891 71.6225315,6.72393627 74.4251523,0.31033552 C76.7087693,0.103445173 79.4075893,0.206890347 79.5113901,1.5516776 C79.5113901,2.79301968 78.0581793,5.79292971 76.7087693,9.20662043 C74.2175508,15.516776 70.7921254,24.4130609 67.1590984,34.6541331 C65.1868838,40.2401724 63.0070676,46.0331022 61.8652591,49.9640187 C65.6020868,47.6882249 73.1795431,35.6885848 78.0581793,23.5854995 C78.6809839,23.4820544 79.4075893,23.5854995 79.4075893,24.3096157 C79.4075893,27.4129709 69.4427153,52.4467029 61.1386537,52.9639288 C59.4778414,53.0673739 57.7132283,51.4122512 57.6094275,49.6536832 C57.5056268,47.5847798 58.6474352,45.2055408 59.7892437,41.3780694 C56.8828221,48.7226767 54.0802013,53.8949353 50.9661782,54.1018257 Z M54.703006,36.1023655 C51.9003852,43.8607535 50.7585767,49.4467929 51.1737798,51.1019157 C54.4954044,50.3777994 58.0246306,41.79185 59.7892437,37.2402624 C61.1386537,33.8265717 62.9032668,30.2059906 62.799466,27.9301968 C62.799466,25.8612933 61.6576576,24.6199513 60.5158491,24.7233964 C59.2702398,24.8268416 57.8170291,27.4129709 54.703006,36.1023655 Z" id="Shape"></path>
                            <path d="M75.5669608,52.4467029 C70.7921254,52.6535933 68.4047076,50.0674639 68.3009069,47.6882249 C68.1971061,46.2399925 68.9237115,44.8952052 70.3769223,44.6883149 C71.6225315,46.6537732 73.4909454,49.0330122 74.7365546,49.7571284 C76.7087693,47.7916701 78.3695816,41.2746242 78.4733824,28.033642 C78.4733824,26.4819644 77.4353746,26.275074 77.4353746,25.5509578 C77.4353746,25.4475127 77.5391754,25.2406223 77.5391754,25.1371771 C81.4836047,14.6892146 83.4558193,11.0686336 86.8812447,10.9651884 C89.3724632,10.8617432 90.9294748,13.3444274 91.6560802,15.9305567 C87.8154517,17.6891246 81.2760032,20.5855895 81.3798039,24.3096157 C81.4836047,26.8957451 83.7672216,33.3093458 83.7672216,39.2057207 C83.7672216,41.2746242 83.5596201,43.2400825 83.144417,44.9986504 C86.6736432,40.2401724 90.2028694,32.3783393 93.0054902,25.9647385 C93.4206933,25.8612933 93.524494,26.0681837 93.524494,26.3785192 C93.4206933,29.2749841 85.2204324,52.0329222 75.5669608,52.4467029 Z" id="Shape"></path>
                            <path d="M85.843237,47.1709991 C85.7394363,43.6538632 90.0990686,31.6542231 93.9396971,22.4476026 C92.5902871,22.4476026 91.4484786,22.3441575 90.5142717,22.2407123 C90.4104709,22.0338219 90.4104709,21.9303768 90.4104709,21.7234864 C90.4104709,21.1028154 90.6180725,20.5855895 91.5522794,20.4821443 C92.5902871,20.3786992 93.7320956,20.3786992 94.7701033,20.3786992 C96.3271148,16.8615633 97.5727241,13.8616532 98.2993295,12.516866 C102.036157,12.4134208 103.281766,13.4478725 103.281766,14.896105 C103.281766,15.9305567 102.243759,18.2063505 101.205751,20.275254 C102.762763,20.275254 104.319774,20.3786992 105.669184,20.3786992 C105.876786,20.6890347 105.980586,20.895925 105.876786,21.1028154 C105.876786,22.1372671 104.008372,22.4476026 100.167743,22.5510478 C97.9879272,27.8267516 95.4967087,34.1369072 92.4864863,42.4125211 C91.8636817,44.2745342 91.5522794,45.6193215 91.5522794,46.550328 C91.5522794,47.6882249 91.8636817,48.308896 92.3826856,48.8261218 C97.157521,45.929657 102.866563,34.5506879 106.810993,25.5509578 C107.226196,25.4475127 107.329996,25.654403 107.329996,25.9647385 C107.226196,28.9646485 97.4689233,51.7225867 91.1370763,51.8260319 C88.5420571,52.0329222 85.9470378,49.8605736 85.843237,47.1709991 Z" id="Shape"></path>
                            <path d="M111.378227,48.2054508 C111.378227,46.6537732 112.831437,43.3435276 114.180847,39.8263918 C110.54782,46.550328 107.7452,51.929477 104.734977,51.929477 C102.555161,51.929477 99.6487395,49.8605736 99.6487395,46.9641087 C99.6487395,43.4469728 100.99815,38.2747142 102.970364,33.6196813 C105.876786,26.3785192 109.613613,19.6545829 114.077047,19.6545829 C116.360664,19.6545829 119.059484,21.7234864 119.370886,25.1371771 C120.097491,23.4820544 120.824097,21.8269316 121.446901,20.3786992 C124.145721,20.3786992 126.221737,20.6890347 126.117936,22.9648285 C126.117936,24.5165061 124.041921,29.7922099 121.862104,35.0679138 C119.370886,40.8608435 116.568265,46.6537732 115.84166,49.4467929 C119.99369,47.8951153 127.467346,35.5851396 131.930779,26.3785192 C132.345982,26.3785192 132.449783,26.4819644 132.449783,26.7922999 C132.242181,29.8956551 121.3431,52.1363674 115.322656,52.0329222 C113.14284,51.929477 111.274426,49.8605736 111.378227,48.2054508 Z M114.077047,35.8954752 C115.634058,32.6886748 117.606273,29.1715389 117.710074,26.8957451 C117.813874,24.8268416 116.775867,23.4820544 115.634058,23.4820544 C114.388449,23.4820544 112.623836,25.8612933 108.160403,36.3092559 C105.772985,41.79185 104.527376,47.2744442 104.838778,49.0330122 C107.226196,47.8951153 110.755422,42.3090759 114.077047,35.8954752 Z" id="Shape"></path>
                            <path d="M123.626717,47.2744442 C123.730518,43.7573083 128.609154,31.9645586 132.761185,23.0682737 C131.411775,22.9648285 130.269967,22.7579381 129.33576,22.654493 C129.231959,22.4476026 129.231959,22.3441575 129.33576,22.1372671 C129.33576,21.5165961 129.647162,20.9993702 130.581369,20.895925 C131.619377,20.895925 132.761185,20.895925 133.902994,20.9993702 C135.563806,17.4822343 137.017017,14.6892146 137.743622,13.3444274 C141.48045,13.4478725 142.622258,14.5857694 142.622258,16.0340019 C142.622258,17.0684536 141.48045,19.2408022 140.338641,21.3097057 C141.895653,21.4131509 143.452665,21.5165961 144.802075,21.6200412 C145.009676,21.9303768 145.009676,22.2407123 145.009676,22.3441575 C145.009676,23.3786092 143.141262,23.5854995 139.196833,23.4820544 C136.809415,28.5508679 134.006794,34.7575783 130.68517,42.929747 C129.958564,44.6883149 129.647162,46.0331022 129.647162,47.0675539 C129.543361,48.2054508 129.854764,48.929567 130.373768,49.4467929 C135.356204,46.7572184 141.376649,35.79203 145.736282,27.1026354 C146.151485,27.1026354 146.255285,27.2060806 146.255285,27.5164161 C146.047684,30.5163261 135.356204,52.6535933 128.920557,52.4467029 C126.014135,52.2398126 123.522917,49.9640187 123.626717,47.2744442 Z" id="Shape"></path>
                            <path d="M140.753845,52.9639288 C138.366427,52.8604836 135.979009,50.9984705 136.08281,48.929567 C136.290411,42.5159663 146.87809,26.1716289 147.604695,21.6200412 L148.954105,21.6200412 C151.756726,21.8269316 152.898535,22.8613833 152.794734,24.1027254 C152.483332,28.7577582 142.82986,43.9641987 141.688051,49.9640187 C146.87809,47.3778894 154.040343,36.412701 158.399975,27.9301968 C158.815179,27.9301968 158.918979,28.033642 158.918979,28.3439775 C158.711378,31.4473327 146.670488,53.2742643 140.753845,52.9639288 Z M159.749386,11.1720787 C159.645585,12.9306467 157.569569,14.5857694 155.389753,16.0340019 C153.417539,17.275344 151.549125,18.4132409 150.718718,19.1373571 C150.303515,19.1373571 149.784512,18.7235764 149.784512,18.1029053 C149.784512,17.6891246 150.199715,17.0684536 150.718718,16.137447 C151.549125,14.7926598 152.898535,12.516866 154.351745,8.58594939 C157.465769,8.89628491 159.956987,9.10317526 159.749386,11.1720787 Z" id="Shape"></path>
                            <path d="M150.511117,45.7227666 C150.822519,40.0332821 155.078351,31.5507779 159.437983,26.1716289 C160.787393,24.6199513 162.448206,23.9992802 164.005217,24.1027254 C164.939424,24.2061706 165.76983,24.6199513 166.392635,25.3440675 C161.7216,31.4473327 156.32396,43.8607535 156.012558,48.6192315 C155.908757,49.8605736 156.220159,51.1019157 156.842964,51.929477 C159.853186,51.308806 169.299056,33.8265717 169.714259,24.6199513 C166.392635,23.6889447 164.212819,21.9303768 164.42042,20.1718088 C164.524221,19.1373571 166.392635,17.5856795 167.949646,17.6891246 C170.856068,17.9994602 174.073892,20.895925 175.1119,23.9992802 C176.253708,24.2061706 177.499317,24.3096157 178.848727,24.5165061 C180.198137,24.6199513 181.651348,24.8268416 183.20836,24.9302868 C183.20836,25.1371771 183.31216,25.3440675 183.31216,25.654403 C183.20836,26.7922999 181.755149,27.4129709 179.471532,27.1026354 C178.329723,26.9991903 176.876513,26.5854096 175.527103,25.9647385 L175.527103,26.5854096 C174.800497,35.0679138 165.354627,54.7224967 156.739163,53.9983805 C152.690933,53.688045 150.303515,50.7915801 150.511117,45.7227666 Z" id="Shape"></path>
                            <path d="M183.415961,51.7225867 C183.623563,49.5502381 186.218582,44.6883149 189.436406,39.8263918 C192.75803,34.7575783 196.287257,30.2059906 196.287257,28.4474227 C193.796038,27.7233065 180.820942,43.2400825 175.008099,55.0328322 C174.489095,55.1362774 173.970091,55.1362774 173.243486,55.1362774 C171.686474,54.9293871 170.233263,54.308716 170.337064,52.9639288 C170.544666,50.8950253 172.620681,46.2399925 175.319501,40.7573983 C177.91452,35.6885848 180.924743,30.6197713 182.481754,26.9991903 C181.236145,27.2060806 180.301938,27.1026354 179.679133,26.9991903 C178.433524,26.8957451 178.122122,26.275074 178.122122,25.654403 C178.122122,25.2406223 178.225923,24.9302868 178.433524,24.5165061 C180.405739,24.8268416 182.274153,24.6199513 184.038766,24.8268416 C186.218582,25.1371771 187.567992,26.3785192 187.36039,28.4474227 C187.152789,30.2059906 184.453969,35.2748041 181.85895,40.4470628 C187.464191,32.6886748 192.75803,25.5509578 196.910061,26.0681837 C199.193678,26.3785192 202.203901,27.9301968 201.892498,30.7232165 C201.684897,32.79212 198.882276,37.2402624 195.45685,42.4125211 C192.342827,47.1709991 188.813601,52.0329222 189.021203,54.308716 C191.720023,53.3777095 194.211241,50.5846898 196.287257,47.8951153 C196.806261,47.8951153 197.117663,48.1020056 197.117663,48.7226767 C196.806261,51.4122512 191.201019,57.6189616 187.464191,57.2051809 C185.180574,56.9982905 183.20836,54.5156064 183.415961,51.7225867 Z" id="Shape"></path>
                            <path d="M201.477295,50.2743543 C203.864713,50.5846898 206.044529,52.0329222 205.836928,53.688045 C205.525525,55.8603936 202.203901,59.2740843 199.608881,58.8603037 C198.05187,58.6534133 196.183456,56.687955 196.391057,54.8259419 C196.494858,53.5845998 198.882276,49.9640187 201.477295,50.2743543 Z" id="Shape"></path>
                        </g>
                    </g>
                    <g id="Ebene_3" transform="translate(0.000000, 57.647423)">
                        <path d="M2.77565476,14.4538632 C36.6147059,11.8677338 70.3499562,7.52303655 104.292808,5.86791378 C138.858465,4.10934583 173.21652,6.38513964 207.263172,12.9021856 C210.480996,13.5228566 211.934207,8.55748828 208.612582,7.93681724 C174.66973,1.31632615 140.415476,-1.06291284 105.84982,0.592209934 C71.3879639,2.24733271 37.029909,6.59202999 2.67185399,9.2816045 C-0.545969888,9.59194002 -0.545969888,14.7641987 2.77565476,14.4538632 L2.77565476,14.4538632 Z" id="Shape"></path>
                    </g>
                </g>
            </g>
        </g>
    </g>
</svg>
