<svg width="42px" height="41px" viewBox="0 0 42 41" version="1.1" xmlns="http://www.w3.org/2000/svg" xmlns:xlink="http://www.w3.org/1999/xlink">
    <g id="Page-1" stroke="none" stroke-width="1" fill="none" fill-rule="evenodd">
        <g id="Desktop-HD" transform="translate(-379.000000, -34.000000)" fill="#FFFFFF">
            <g id="Logo" transform="translate(379.000000, 35.000000)">
                <g id="Group">
                    <path d="M14.08,25.365 L7.92502857,25.365 L7.01988571,30 L1.0912,30 L7.92502857,-0.15 L14.4420571,-0.15 L21.0496,30 L14.8493714,30 L14.08,25.365 Z M13.2201143,20.55 L11.1382857,6.87 L8.73965714,20.55 L13.2201143,20.55 Z M24.6701714,-0.015 L32.6806857,-0.015 C38.3830857,-0.015 41.5058286,2.55 41.5058286,7.23 C41.5058286,10.875 39.6955429,13.08 36.1654857,13.8 C40.2386286,14.88 42.0036571,17.13 42.0036571,21.27 C42.0036571,26.94 38.4283429,30 31.7755429,30 L24.6701714,30 L24.6701714,-0.015 Z M30.5536,12 L31.7755429,12 C34.0384,12 35.6224,10.47 35.6224,8.22 C35.6224,6.015 34.0384,4.485 31.7755429,4.485 L30.5536,4.485 L30.5536,12 Z M30.5536,25.365 L31.7755429,25.365 C34.4004571,25.365 35.9844571,23.7 35.9844571,20.91 C35.9844571,18.12 34.4004571,16.5 31.7755429,16.5 L30.5536,16.5 L30.5536,25.365 Z" id="AB"></path>
                    <rect id="Rectangle" x="0" y="34.375" width="22" height="5"></rect>
                </g>
            </g>
        </g>
    </g>
</svg>
